<?xml version="1.0" encoding="utf-8"?><!DOCTYPE svg PUBLIC "-//W3C//DTD SVG 1.1//EN" "http://www.w3.org/Graphics/SVG/1.1/DTD/svg11.dtd"><svg width="100" height="96" viewBox="0 0 100 96" xmlns="http://www.w3.org/2000/svg" xmlns:xlink="http://www.w3.org/1999/xlink"><svg width="23" height="23" viewBox="0 0 23 23" id="check-off" xmlns="http://www.w3.org/2000/svg"><path d="M20 2c.542 0 1 .458 1 1v17c0 .542-.458 1-1 1H3c-.542 0-1-.458-1-1V3c0-.542.458-1 1-1h17m0-2H3C1.35 0 0 1.35 0 3v17c0 1.65 1.35 3 3 3h17c1.65 0 3-1.35 3-3V3c0-1.65-1.35-3-3-3z"/></svg><svg width="27" height="23" viewBox="0 0 27 23" id="check-on" x="23" y="23" xmlns="http://www.w3.org/2000/svg"><path d="M7.285 7.486l-2.829 2.829 7.783 7.783L26.171 4.166l-2.828-2.829-11.104 11.102z"/><path d="M21 20c0 .542-.458 1-1 1H3c-.542 0-1-.458-1-1V3c0-.542.458-1 1-1h16.908L21.493.415A2.96 2.96 0 0 0 20 0H3C1.35 0 0 1.35 0 3v17c0 1.65 1.35 3 3 3h17c1.65 0 3-1.35 3-3v-9.829l-2 2V20z"/></svg><svg width="25" height="25" viewBox="0 0 25 25" id="radio-off" x="50" y="46" xmlns="http://www.w3.org/2000/svg"><path d="M12.5 4c4.687 0 8.5 3.813 8.5 8.5 0 4.687-3.813 8.5-8.5 8.5C7.813 21 4 17.187 4 12.5 4 7.813 7.813 4 12.5 4m0-4C5.597 0 0 5.597 0 12.5S5.597 25 12.5 25 25 19.403 25 12.5 19.403 0 12.5 0z"/></svg><svg width="25" height="25" viewBox="0 0 25 25" id="radio-on" x="75" y="71" xmlns="http://www.w3.org/2000/svg"><path d="M12.5 4c4.687 0 8.5 3.813 8.5 8.5 0 4.687-3.813 8.5-8.5 8.5C7.813 21 4 17.187 4 12.5 4 7.813 7.813 4 12.5 4m0-4C5.597 0 0 5.597 0 12.5S5.597 25 12.5 25 25 19.403 25 12.5 19.403 0 12.5 0z"/><circle cx="12.5" cy="12.5" r="4.5"/></svg></svg>